<svg version="1" xmlns="http://www.w3.org/2000/svg" width="1666.667" height="1666.667" viewBox="0 0 1250.000000 1250.000000"><path d="M139.5 182.6c-1.6.8-4.1 2.7-5.5 4.2l-2.5 2.7-.1 365.7-.2 365.7 6.9 6.1c3.7 3.4 7.9 7.1 9.2 8.3 1.3 1.2 6.4 5.8 11.2 10.2 4.9 4.4 9.6 8.7 10.5 9.5.9.8 5.2 4.6 9.6 8.5 4.3 3.8 8.1 7.2 8.4 7.5.3.4 5.2 4.9 11 10 5.8 5.2 11 9.9 11.6 10.5.6.5 4.8 4.4 9.5 8.5 4.6 4.1 11 9.9 14.4 12.9 3.3 3 8 7.3 10.5 9.5 2.5 2.3 15.1 13.7 28.2 25.4l23.6 21.2h405.9c384.3 0 406-.1 409.3-1.8 1.9-.9 4.5-3.2 5.7-5l2.2-3.3V191.2l-2.2-3.4c-1.2-1.8-3.8-4.1-5.7-5-3.3-1.7-28.6-1.8-486-1.8-433.7 0-482.8.2-485.5 1.6zM1071 626c0 320.9-.3 402-1.2 402.1-1.7.1-749.2.1-753.8 0-2.4-.1-4.5-1-6.6-2.8-1.7-1.6-7.7-7-13.5-12.2-5.7-5.2-12.7-11.5-15.5-14-8.7-8-20.9-18.9-23.5-21.1-1.3-1.2-4.4-4-6.9-6.3s-8.3-7.6-13-11.7c-4.6-4.1-9.4-8.4-10.5-9.5-1.1-1.1-4-3.8-6.5-5.9-2.5-2.2-8.6-7.7-13.6-12.3-5-4.6-10-9.1-11.1-10.1-1.1-.9-5.2-4.6-9.2-8.1l-7.1-6.3V224h892v402z"/><path d="M318.9 269c0 3.2 0 291 .1 293 0 1.3 34.7 1.5 306 1.5h306l.1-5.5c0-3 .1-69.7.2-148.2.1-94.6-.1-142.8-.8-142.9-.5-.1-11.2-.2-23.7-.3-19.7-.1-22.8.1-22.9 1.4 0 .8-.1 58-.1 127l-.1 125.5H366.5v-254H319l-.1 2.5zM413.9 776c0 .8-.1 48.3-.1 105.5l-.1 104 22.6.3 22.7.2v-86.4c0-68.2.3-86.5 1.3-86.8 1-.4 324.1-.3 327.3.1.9.1 1.2 22.8 1.1 86.3v86.3h47.8v-211H625.3c-187.2 0-211.3.2-211.4 1.5z"/><path d="M506.3 943.2l-.1 42.8H554v-85.8l-23.9.1h-23.8v42.9z"/></svg>